<?xml version="1.0" standalone="no"?>
<!DOCTYPE svg PUBLIC "-//W3C//DTD SVG 20010904//EN"
 "http://www.w3.org/TR/2001/REC-SVG-20010904/DTD/svg10.dtd">
<svg version="1.0" xmlns="http://www.w3.org/2000/svg"
 width="1176.000000pt" height="1176.000000pt" viewBox="0 0 1176.000000 1176.000000"
 preserveAspectRatio="xMidYMid meet">
<metadata>
Created by potrace 1.11, written by Peter Selinger 2001-2013
</metadata>
<g transform="translate(0.000000,1176.000000) scale(0.100000,-0.100000)"
fill="#000000" stroke="none">
<path d="M6055 11750 c-22 -5 -53 -11 -70 -14 -16 -3 -41 -8 -55 -11 -14 -4
-30 -7 -35 -8 -35 -8 -130 -66 -172 -106 -67 -63 -104 -113 -152 -205 -72
-139 -141 -372 -165 -557 -3 -19 -7 -47 -10 -64 -7 -43 -17 -128 -22 -178 -2
-23 -7 -73 -11 -112 -8 -87 -8 -889 0 -1005 3 -47 9 -130 12 -185 4 -55 9
-118 11 -140 2 -22 6 -71 9 -110 5 -68 12 -143 20 -215 2 -19 7 -64 11 -100 3
-36 8 -74 10 -85 3 -11 7 -49 10 -85 2 -36 7 -76 9 -90 2 -14 7 -51 10 -83 4
-32 8 -68 11 -80 2 -11 6 -39 9 -62 3 -22 8 -56 10 -75 3 -19 7 -55 10 -80 3
-25 10 -70 15 -100 5 -30 12 -72 15 -94 7 -57 14 -104 25 -166 6 -30 11 -62
11 -70 0 -8 4 -35 9 -60 5 -25 12 -61 15 -80 2 -19 7 -47 10 -63 3 -15 9 -54
15 -87 6 -33 12 -72 15 -87 3 -16 8 -44 10 -63 3 -19 10 -55 15 -80 5 -25 12
-58 15 -75 3 -16 7 -41 10 -55 3 -14 9 -50 15 -80 6 -30 12 -66 15 -80 8 -37
14 -71 20 -105 3 -16 8 -37 10 -45 2 -8 7 -28 10 -45 2 -16 7 -41 10 -55 3
-14 8 -36 11 -50 2 -14 9 -47 15 -75 6 -27 12 -59 14 -70 2 -11 15 -74 30
-140 15 -66 28 -129 30 -140 2 -11 10 -47 18 -80 9 -33 18 -73 21 -90 9 -49
13 -67 29 -130 9 -33 19 -73 22 -90 8 -40 13 -60 15 -60 1 0 3 -9 5 -20 1 -11
15 -67 29 -125 15 -58 29 -116 32 -130 3 -14 21 -88 41 -165 19 -77 37 -148
38 -157 2 -10 6 -22 9 -26 3 -5 7 -19 9 -33 6 -32 57 -230 64 -249 3 -8 8 -24
10 -35 6 -27 9 -37 16 -55 3 -8 7 -26 10 -40 3 -14 16 -62 29 -107 14 -46 21
-83 17 -83 -4 0 -10 8 -13 18 -3 9 -18 31 -34 47 -15 17 -45 55 -67 85 -22 30
-42 57 -45 60 -3 3 -27 34 -54 70 -50 65 -60 78 -93 116 -10 11 -40 49 -68 85
-27 35 -56 71 -65 79 -9 8 -31 35 -50 60 -19 25 -39 50 -45 56 -5 6 -32 37
-60 69 -53 62 -130 150 -176 200 -16 17 -37 40 -47 53 -124 145 -474 494 -655
653 -40 35 -74 66 -77 69 -5 5 -90 75 -133 110 -11 8 -24 20 -31 25 -57 54
-340 255 -357 255 -5 0 -9 5 -9 10 0 6 -7 10 -15 10 -8 0 -15 4 -15 9 0 5 -8
11 -17 14 -20 6 -75 39 -83 48 -14 18 -309 152 -402 183 -103 34 -119 38 -203
53 -80 14 -316 8 -380 -11 -217 -63 -409 -228 -507 -436 -43 -92 -76 -200 -82
-276 -2 -11 -5 -24 -8 -30 -6 -10 -2 -305 5 -344 2 -14 7 -43 11 -65 3 -23 9
-52 12 -65 3 -14 7 -36 10 -50 17 -80 88 -317 113 -375 5 -11 21 -49 35 -85
50 -120 70 -164 145 -315 41 -82 78 -151 82 -153 5 -2 9 -9 9 -15 0 -7 32 -65
70 -130 39 -65 70 -122 70 -128 0 -5 4 -9 9 -9 5 0 14 -13 21 -30 7 -16 16
-30 21 -30 5 0 9 -5 9 -10 0 -6 23 -44 50 -86 28 -41 50 -78 50 -81 0 -4 10
-18 59 -79 5 -6 16 -25 25 -42 9 -18 20 -32 24 -32 4 0 13 -13 20 -28 6 -16
20 -37 30 -48 9 -10 46 -59 82 -109 70 -97 77 -108 100 -134 8 -9 31 -39 50
-67 19 -27 40 -55 47 -62 7 -7 34 -41 60 -75 26 -34 50 -64 53 -67 3 -3 35
-41 70 -85 61 -75 297 -354 309 -365 3 -3 26 -27 50 -55 186 -210 374 -407
643 -674 193 -193 259 -256 466 -446 100 -91 109 -100 162 -145 29 -25 64 -55
78 -68 59 -53 200 -173 261 -222 24 -19 48 -40 55 -45 6 -6 61 -50 121 -98 61
-49 118 -95 128 -103 9 -8 20 -14 24 -14 3 0 11 -6 17 -14 6 -8 58 -48 116
-90 58 -41 112 -81 120 -88 40 -35 419 -288 430 -288 6 0 10 -3 10 -8 0 -4 9
-12 19 -17 11 -6 73 -41 138 -79 151 -89 293 -162 413 -213 102 -43 268 -99
322 -108 18 -3 46 -8 61 -11 47 -10 149 -7 209 5 49 11 61 10 80 -3 31 -22 74
-20 97 3 19 19 20 19 63 -13 24 -18 63 -43 88 -56 25 -12 53 -26 62 -31 10 -5
27 -9 37 -9 11 0 22 -4 25 -9 4 -5 18 -8 32 -6 20 2 30 -4 43 -26 43 -76 147
-53 154 34 1 18 16 36 47 58 57 40 100 88 151 164 35 53 117 212 124 240 2 12
11 35 30 85 14 34 54 169 60 200 2 8 4 15 5 15 1 0 3 7 5 15 2 8 11 47 20 85
19 79 21 89 29 136 5 32 9 49 21 109 3 14 7 41 9 60 3 19 8 46 11 60 3 14 8
48 10 76 3 28 8 62 11 75 2 13 7 44 9 69 3 25 7 63 10 85 6 44 15 138 20 200
34 425 39 561 39 1125 0 432 -5 665 -19 935 -3 39 -6 111 -9 160 -10 183 -16
281 -21 325 -2 25 -7 83 -11 130 -14 195 -29 358 -39 445 -3 22 -7 63 -10 90
-7 86 -15 158 -21 205 -3 24 -8 67 -10 95 -2 27 -7 66 -10 85 -3 19 -8 53 -10
75 -2 22 -7 56 -10 75 -3 19 -7 53 -9 75 -3 39 -14 124 -20 155 -3 13 -10 72
-21 155 -1 11 -3 20 -4 20 -1 0 -3 16 -4 35 -2 19 -6 46 -9 60 -4 14 -9 45
-11 70 -3 25 -7 56 -10 70 -6 25 -12 66 -21 135 -2 22 -7 51 -10 65 -3 14 -8
41 -11 60 -3 19 -7 46 -10 60 -11 67 -35 198 -40 225 -3 17 -7 39 -9 50 -3 24
-22 130 -30 165 -7 35 -12 62 -52 260 -20 96 -39 193 -44 215 -5 22 -11 51
-14 65 -5 33 -56 252 -94 413 -17 70 -33 136 -35 145 -1 9 -6 24 -9 32 -3 8
-20 71 -37 140 -17 69 -38 142 -46 163 -8 20 -12 37 -9 37 2 0 -3 21 -11 48
-8 26 -17 56 -20 67 -8 30 -10 36 -24 85 -8 25 -14 47 -15 50 -6 24 -35 116
-68 218 -21 68 -40 129 -41 135 -2 7 -6 20 -9 30 -10 24 -15 41 -14 47 0 3 -5
15 -12 28 -7 13 -14 32 -16 43 -2 11 -18 59 -35 107 -62 170 -113 307 -125
337 -7 17 -33 80 -58 140 -25 61 -54 128 -63 150 -10 22 -18 42 -19 45 -11 37
-200 422 -247 505 -19 33 -40 69 -46 80 -82 146 -218 361 -247 391 -5 6 -17
22 -25 34 -89 132 -275 337 -410 450 -36 30 -67 57 -70 61 -3 3 -41 28 -85 57
-44 29 -84 56 -90 60 -10 7 -57 31 -147 71 -36 16 -75 31 -98 36 -3 1 -30 9
-60 18 -30 9 -71 19 -90 22 -58 10 -302 13 -345 5z"/>
</g>
</svg>
